<svg width="175" height="45" viewBox="0 0 175 45" fill="none" xmlns="http://www.w3.org/2000/svg">
<path d="M96 16.7273H97.2727V18H96V16.7273ZM96 15.4545H97.2727V16.7273H96V15.4545ZM96 14.1818H97.2727V15.4545H96V14.1818ZM96 12.9091H97.2727V14.1818H96V12.9091ZM96 11.6364H97.2727V12.9091H96V11.6364ZM97.2727 11.6364H98.5455V12.9091H97.2727V11.6364ZM97.2727 14.1818H98.5455V15.4545H97.2727V14.1818ZM98.5455 11.6364H99.8182V12.9091H98.5455V11.6364ZM101.086 11.6364H102.359V12.9091H101.086V11.6364ZM101.086 12.9091H102.359V14.1818H101.086V12.9091ZM101.086 14.1818H102.359V15.4545H101.086V14.1818ZM101.086 15.4545H102.359V16.7273H101.086V15.4545ZM101.086 16.7273H102.359V18H101.086V16.7273ZM103.629 16.7273H104.902V18H103.629V16.7273ZM103.629 15.4545H104.902V16.7273H103.629V15.4545ZM103.629 14.1818H104.902V15.4545H103.629V14.1818ZM103.629 11.6364H104.902V12.9091H103.629V11.6364ZM108.717 12.9091H109.99V14.1818H108.717V12.9091ZM108.717 14.1818H109.99V15.4545H108.717V14.1818ZM108.717 15.4545H109.99V16.7273H108.717V15.4545ZM108.717 16.7273H109.99V18H108.717V16.7273ZM108.717 18H109.99V19.2727H108.717V18ZM107.445 18H108.717V19.2727H107.445V18ZM106.172 18H107.445V19.2727H106.172V18ZM107.445 12.9091H108.717V14.1818H107.445V12.9091ZM106.172 14.1818H107.445V15.4545H106.172V14.1818ZM106.172 15.4545H107.445V16.7273H106.172V15.4545ZM111.258 11.6364H112.531V12.9091H111.258V11.6364ZM111.258 12.9091H112.531V14.1818H111.258V12.9091ZM111.258 14.1818H112.531V15.4545H111.258V14.1818ZM111.258 15.4545H112.531V16.7273H111.258V15.4545ZM111.258 16.7273H112.531V18H111.258V16.7273ZM112.531 12.9091H113.803V14.1818H112.531V12.9091ZM113.803 14.1818H115.076V15.4545H113.803V14.1818ZM113.803 15.4545H115.076V16.7273H113.803V15.4545ZM113.803 16.7273H115.076V18H113.803V16.7273ZM116.344 11.6364H117.616V12.9091H116.344V11.6364ZM116.344 12.9091H117.616V14.1818H116.344V12.9091ZM116.344 14.1818H117.616V15.4545H116.344V14.1818ZM116.344 15.4545H117.616V16.7273H116.344V15.4545ZM116.344 16.7273H117.616V18H116.344V16.7273ZM117.616 16.7273H118.889V18H117.616V16.7273ZM117.616 12.9091H118.889V14.1818H117.616V12.9091ZM126.518 11.6364H127.791V12.9091H126.518V11.6364ZM125.245 11.6364H126.518V12.9091H125.245V11.6364ZM123.973 12.9091H125.245V14.1818H123.973V12.9091ZM123.973 14.1818H125.245V15.4545H123.973V14.1818ZM125.245 14.1818H126.518V15.4545H125.245V14.1818ZM126.518 14.1818H127.791V15.4545H126.518V14.1818ZM126.518 15.4545H127.791V16.7273H126.518V15.4545ZM126.518 16.7273H127.791V18H126.518V16.7273ZM125.245 16.7273H126.518V18H125.245V16.7273ZM123.973 16.7273H125.245V18H123.973V16.7273ZM123.973 11.6364H125.245V12.9091H123.973V11.6364ZM129.059 16.7273H130.331V18H129.059V16.7273ZM129.059 15.4545H130.331V16.7273H129.059V15.4545ZM129.059 14.1818H130.331V15.4545H129.059V14.1818ZM129.059 11.6364H130.331V12.9091H129.059V11.6364ZM131.602 16.7273H132.874V18H131.602V16.7273ZM131.602 15.4545H132.874V16.7273H131.602V15.4545ZM131.602 14.1818H132.874V15.4545H131.602V14.1818ZM131.602 12.9091H132.874V14.1818H131.602V12.9091ZM132.874 12.9091H134.147V14.1818H132.874V12.9091ZM134.147 14.1818H135.42V15.4545H134.147V14.1818ZM134.147 15.4545H135.42V16.7273H134.147V15.4545ZM134.147 16.7273H135.42V18H134.147V16.7273ZM135.42 12.9091H136.692V14.1818H135.42V12.9091ZM136.692 14.1818H137.965V15.4545H136.692V14.1818ZM136.692 15.4545H137.965V16.7273H136.692V15.4545ZM136.692 16.7273H137.965V18H136.692V16.7273ZM139.244 12.9091H140.517V14.1818H139.244V12.9091ZM139.244 14.1818H140.517V15.4545H139.244V14.1818ZM139.244 15.4545H140.517V16.7273H139.244V15.4545ZM140.517 16.7273H141.79V18H140.517V16.7273ZM141.79 16.7273H143.062V18H141.79V16.7273ZM141.79 15.4545H143.062V16.7273H141.79V15.4545ZM141.79 14.1818H143.062V15.4545H141.79V14.1818ZM141.79 12.9091H143.062V14.1818H141.79V12.9091ZM144.33 11.6364H145.603V12.9091H144.33V11.6364ZM144.33 12.9091H145.603V14.1818H144.33V12.9091ZM144.33 14.1818H145.603V15.4545H144.33V14.1818ZM144.33 15.4545H145.603V16.7273H144.33V15.4545ZM144.33 16.7273H145.603V18H144.33V16.7273ZM149.419 12.9091H150.691V14.1818H149.419V12.9091ZM149.419 14.1818H150.691V15.4545H149.419V14.1818ZM149.419 15.4545H150.691V16.7273H149.419V15.4545ZM149.419 16.7273H150.691V18H149.419V16.7273ZM148.146 12.9091H149.419V14.1818H148.146V12.9091ZM148.146 16.7273H149.419V18H148.146V16.7273ZM146.873 14.1818H148.146V15.4545H146.873V14.1818ZM146.873 15.4545H148.146V16.7273H146.873V15.4545ZM151.959 11.6364H153.232V12.9091H151.959V11.6364ZM151.959 12.9091H153.232V14.1818H151.959V12.9091ZM151.959 14.1818H153.232V15.4545H151.959V14.1818ZM151.959 15.4545H153.232V16.7273H151.959V15.4545ZM151.959 16.7273H153.232V18H151.959V16.7273ZM153.232 16.7273H154.504V18H153.232V16.7273ZM153.232 12.9091H154.504V14.1818H153.232V12.9091ZM155.773 16.7273H157.046V18H155.773V16.7273ZM155.773 15.4545H157.046V16.7273H155.773V15.4545ZM155.773 14.1818H157.046V15.4545H155.773V14.1818ZM155.773 11.6364H157.046V12.9091H155.773V11.6364ZM158.316 14.1818H159.589V15.4545H158.316V14.1818ZM158.316 15.4545H159.589V16.7273H158.316V15.4545ZM159.589 16.7273H160.862V18H159.589V16.7273ZM160.862 15.4545H162.135V16.7273H160.862V15.4545ZM160.862 14.1818H162.135V15.4545H160.862V14.1818ZM159.589 12.9091H160.862V14.1818H159.589V12.9091ZM163.402 16.7273H164.675V18H163.402V16.7273ZM163.402 15.4545H164.675V16.7273H163.402V15.4545ZM163.402 14.1818H164.675V15.4545H163.402V14.1818ZM163.402 12.9091H164.675V14.1818H163.402V12.9091ZM164.675 12.9091H165.948V14.1818H164.675V12.9091ZM165.948 14.1818H167.221V15.4545H165.948V14.1818ZM165.948 15.4545H167.221V16.7273H165.948V15.4545ZM165.948 16.7273H167.221V18H165.948V16.7273ZM96 25.6364H97.2727V26.9091H96V25.6364ZM96 26.9091H97.2727V28.1818H96V26.9091ZM96 28.1818H97.2727V29.4545H96V28.1818ZM96 29.4545H97.2727V30.7273H96V29.4545ZM96 30.7273H97.2727V32H96V30.7273ZM97.2727 25.6364H98.5455V26.9091H97.2727V25.6364ZM98.5455 26.9091H99.8182V28.1818H98.5455V26.9091ZM98.5455 28.1818H99.8182V29.4545H98.5455V28.1818ZM98.5455 29.4545H99.8182V30.7273H98.5455V29.4545ZM97.2727 30.7273H98.5455V32H97.2727V30.7273ZM103.631 26.9091H104.904V28.1818H103.631V26.9091ZM103.631 28.1818H104.904V29.4545H103.631V28.1818ZM103.631 29.4545H104.904V30.7273H103.631V29.4545ZM103.631 30.7273H104.904V32H103.631V30.7273ZM102.359 26.9091H103.631V28.1818H102.359V26.9091ZM102.359 30.7273H103.631V32H102.359V30.7273ZM101.086 28.1818H102.359V29.4545H101.086V28.1818ZM101.086 29.4545H102.359V30.7273H101.086V29.4545ZM106.172 25.6364H107.445V26.9091H106.172V25.6364ZM106.172 26.9091H107.445V28.1818H106.172V26.9091ZM106.172 28.1818H107.445V29.4545H106.172V28.1818ZM106.172 29.4545H107.445V30.7273H106.172V29.4545ZM106.172 30.7273H107.445V32H106.172V30.7273ZM107.445 30.7273H108.717V32H107.445V30.7273ZM107.445 26.9091H108.717V28.1818H107.445V26.9091ZM112.532 26.9091H113.805V28.1818H112.532V26.9091ZM112.532 28.1818H113.805V29.4545H112.532V28.1818ZM112.532 29.4545H113.805V30.7273H112.532V29.4545ZM112.532 30.7273H113.805V32H112.532V30.7273ZM111.259 26.9091H112.532V28.1818H111.259V26.9091ZM111.259 30.7273H112.532V32H111.259V30.7273ZM109.986 28.1818H111.259V29.4545H109.986V28.1818ZM109.986 29.4545H111.259V30.7273H109.986V29.4545ZM118.887 25.6364H120.159V26.9091H118.887V25.6364ZM118.887 26.9091H120.159V28.1818H118.887V26.9091ZM118.887 28.1818H120.159V29.4545H118.887V28.1818ZM118.887 29.4545H120.159V30.7273H118.887V29.4545ZM118.887 30.7273H120.159V32H118.887V30.7273ZM120.159 30.7273H121.432V32H120.159V30.7273ZM122.701 30.7273H123.974V32H122.701V30.7273ZM122.701 29.4545H123.974V30.7273H122.701V29.4545ZM122.701 28.1818H123.974V29.4545H122.701V28.1818ZM122.701 25.6364H123.974V26.9091H122.701V25.6364ZM125.244 30.7273H126.517V32H125.244V30.7273ZM125.244 29.4545H126.517V30.7273H125.244V29.4545ZM125.244 28.1818H126.517V29.4545H125.244V28.1818ZM125.244 26.9091H126.517V28.1818H125.244V26.9091ZM126.517 26.9091H127.79V28.1818H126.517V26.9091ZM127.79 28.1818H129.062V29.4545H127.79V28.1818ZM127.79 29.4545H129.062V30.7273H127.79V29.4545ZM127.79 30.7273H129.062V32H127.79V30.7273ZM130.33 25.6364H131.603V26.9091H130.33V25.6364ZM130.33 26.9091H131.603V28.1818H130.33V26.9091ZM130.33 28.1818H131.603V29.4545H130.33V28.1818ZM130.33 29.4545H131.603V30.7273H130.33V29.4545ZM130.33 30.7273H131.603V32H130.33V30.7273ZM131.603 28.1818H132.876V29.4545H131.603V28.1818ZM132.876 26.9091H134.148V28.1818H132.876V26.9091ZM132.876 29.4545H134.148V30.7273H132.876V29.4545ZM132.876 30.7273H134.148V32H132.876V30.7273ZM139.23 25.6364H140.503V26.9091H139.23V25.6364ZM139.23 26.9091H140.503V28.1818H139.23V26.9091ZM139.23 28.1818H140.503V29.4545H139.23V28.1818ZM139.23 29.4545H140.503V30.7273H139.23V29.4545ZM139.23 30.7273H140.503V32H139.23V30.7273ZM140.503 25.6364H141.776V26.9091H140.503V25.6364ZM141.776 25.6364H143.049V26.9091H141.776V25.6364ZM141.776 26.9091H143.049V28.1818H141.776V26.9091ZM141.776 28.1818H143.049V29.4545H141.776V28.1818ZM140.503 28.1818H141.776V29.4545H140.503V28.1818ZM144.316 26.9091H145.589V28.1818H144.316V26.9091ZM144.316 28.1818H145.589V29.4545H144.316V28.1818ZM144.316 29.4545H145.589V30.7273H144.316V29.4545ZM144.316 30.7273H145.589V32H144.316V30.7273ZM145.589 26.9091H146.862V28.1818H145.589V26.9091ZM148.131 28.1818H149.404V29.4545H148.131V28.1818ZM148.131 29.4545H149.404V30.7273H148.131V29.4545ZM149.404 30.7273H150.676V32H149.404V30.7273ZM150.676 29.4545H151.949V30.7273H150.676V29.4545ZM150.676 28.1818H151.949V29.4545H150.676V28.1818ZM149.404 26.9091H150.676V28.1818H149.404V26.9091ZM153.217 25.6364H154.49V26.9091H153.217V25.6364ZM153.217 26.9091H154.49V28.1818H153.217V26.9091ZM153.217 28.1818H154.49V29.4545H153.217V28.1818ZM153.217 29.4545H154.49V30.7273H153.217V29.4545ZM153.217 30.7273H154.49V32H153.217V30.7273ZM154.49 30.7273H155.762V32H154.49V30.7273ZM154.49 26.9091H155.762V28.1818H154.49V26.9091ZM157.031 28.1818H158.304V29.4545H157.031V28.1818ZM157.031 29.4545H158.304V30.7273H157.031V29.4545ZM158.304 30.7273H159.577V32H158.304V30.7273ZM159.577 29.4545H160.849V30.7273H159.577V29.4545ZM159.577 28.1818H160.849V29.4545H159.577V28.1818ZM158.304 26.9091H159.577V28.1818H158.304V26.9091ZM163.39 26.9091H164.663V28.1818H163.39V26.9091ZM162.117 28.1818H163.39V29.4545H162.117V28.1818ZM162.117 29.4545H163.39V30.7273H162.117V29.4545ZM163.39 30.7273H164.663V32H163.39V30.7273ZM164.663 26.9091H165.935V28.1818H164.663V26.9091ZM164.663 30.7273H165.935V32H164.663V30.7273ZM167.203 28.1818H168.476V29.4545H167.203V28.1818ZM167.203 29.4545H168.476V30.7273H167.203V29.4545ZM168.476 30.7273H169.749V32H168.476V30.7273ZM169.749 29.4545H171.021V30.7273H169.749V29.4545ZM169.749 28.1818H171.021V29.4545H169.749V28.1818ZM168.476 26.9091H169.749V28.1818H168.476V26.9091ZM172.289 25.6364H173.562V26.9091H172.289V25.6364ZM172.289 26.9091H173.562V28.1818H172.289V26.9091ZM172.289 28.1818H173.562V29.4545H172.289V28.1818ZM172.289 29.4545H173.562V30.7273H172.289V29.4545ZM172.289 30.7273H173.562V32H172.289V30.7273Z" fill="black"/>
<path d="M0 27.9091H4.09091V32H0V27.9091ZM0 23.8182H4.09091V27.9091H0V23.8182ZM0 19.7273H4.09091V23.8182H0V19.7273ZM0 15.6364H4.09091V19.7273H0V15.6364ZM0 11.5455H4.09091V15.6364H0V11.5455ZM4.09091 11.5455H8.18182V15.6364H4.09091V11.5455ZM4.09091 19.7273H8.18182V23.8182H4.09091V19.7273ZM8.18182 11.5455H12.2727V15.6364H8.18182V11.5455ZM24.5295 11.5455H28.6204V15.6364H24.5295V11.5455ZM20.4386 11.5455H24.5295V15.6364H20.4386V11.5455ZM16.3477 15.6364H20.4386V19.7273H16.3477V15.6364ZM16.3477 19.7273H20.4386V23.8182H16.3477V19.7273ZM20.4386 19.7273H24.5295V23.8182H20.4386V19.7273ZM24.5295 19.7273H28.6204V23.8182H24.5295V19.7273ZM24.5295 23.8182H28.6204V27.9091H24.5295V23.8182ZM24.5295 27.9091H28.6204V32H24.5295V27.9091ZM20.4386 27.9091H24.5295V32H20.4386V27.9091ZM16.3477 27.9091H20.4386V32H16.3477V27.9091ZM16.3477 11.5455H20.4386V15.6364H16.3477V11.5455ZM32.6953 11.5455H36.7862V15.6364H32.6953V11.5455ZM32.6953 15.6364H36.7862V19.7273H32.6953V15.6364ZM32.6953 19.7273H36.7862V23.8182H32.6953V19.7273ZM32.6953 23.8182H36.7862V27.9091H32.6953V23.8182ZM32.6953 27.9091H36.7862V32H32.6953V27.9091ZM36.7862 11.5455H40.8771V15.6364H36.7862V11.5455ZM40.8771 15.6364H44.968V19.7273H40.8771V15.6364ZM40.8771 19.7273H44.968V23.8182H40.8771V19.7273ZM40.8771 23.8182H44.968V27.9091H40.8771V23.8182ZM36.7862 27.9091H40.8771V32H36.7862V27.9091ZM49.043 11.5455H53.1339V15.6364H49.043V11.5455ZM49.043 15.6364H53.1339V19.7273H49.043V15.6364ZM49.043 19.7273H53.1339V23.8182H49.043V19.7273ZM49.043 23.8182H53.1339V27.9091H49.043V23.8182ZM49.043 27.9091H53.1339V32H49.043V27.9091ZM53.1339 27.9091H57.2248V32H53.1339V27.9091ZM61.3037 11.5455H65.3946V15.6364H61.3037V11.5455ZM61.3037 15.6364H65.3946V19.7273H61.3037V15.6364ZM61.3037 19.7273H65.3946V23.8182H61.3037V19.7273ZM61.3037 23.8182H65.3946V27.9091H61.3037V23.8182ZM61.3037 27.9091H65.3946V32H61.3037V27.9091ZM65.3946 11.5455H69.4855V15.6364H65.3946V11.5455ZM69.4855 11.5455H73.5764V15.6364H69.4855V11.5455ZM69.4855 15.6364H73.5764V19.7273H69.4855V15.6364ZM69.4855 19.7273H73.5764V23.8182H69.4855V19.7273ZM65.3946 19.7273H69.4855V23.8182H65.3946V19.7273Z" fill="black"/>
<path d="M78 6.45455H79.6364V8.09091H78V6.45455ZM78 8.09091H79.6364V9.72727H78V8.09091ZM78 9.72727H79.6364V11.3636H78V9.72727ZM79.6364 11.3636H81.2727V13H79.6364V11.3636ZM81.2727 6.45455H82.9091V8.09091H81.2727V6.45455ZM81.2727 8.09091H82.9091V9.72727H81.2727V8.09091ZM81.2727 9.72727H82.9091V11.3636H81.2727V9.72727ZM84.5391 4.81818H86.1754V6.45455H84.5391V4.81818ZM86.1754 4.81818H87.8118V6.45455H86.1754V4.81818ZM86.1754 6.45455H87.8118V8.09091H86.1754V6.45455ZM86.1754 8.09091H87.8118V9.72727H86.1754V8.09091ZM86.1754 9.72727H87.8118V11.3636H86.1754V9.72727ZM86.1754 11.3636H87.8118V13H86.1754V11.3636Z" fill="#7575FF"/>
</svg>
